<svg xmlns="http://www.w3.org/2000/svg" width="32" height="32" viewBox="0 0 32 32">
  <rect width="32" height="32" rx="6" fill="#1a1a2e"/>
  <path d="M10 8h6.5c1.8 0 3.2.5 4.1 1.4.9.9 1.4 2 1.4 3.3 0 1.1-.3 2-.9 2.7-.6.7-1.4 1.2-2.4 1.4v.1c1.3.2 2.3.7 3 1.5.7.8 1.1 1.9 1.1 3.1 0 1.5-.5 2.7-1.6 3.6-1.1.9-2.5 1.4-4.4 1.4H10V8zm3.2 7.8h3.5c1 0 1.8-.2 2.3-.7.5-.5.8-1.1.8-2 0-.8-.3-1.4-.8-1.9-.5-.4-1.3-.7-2.3-.7h-3.5v5.3zm0 2.5v6h4c1 0 1.8-.3 2.4-.8.6-.5.9-1.3.9-2.2 0-1-.3-1.7-.9-2.2-.6-.5-1.5-.8-2.6-.8h-3.8z" fill="white"/>
</svg>
